<?xml version="1.0" standalone="no"?>
<!DOCTYPE svg PUBLIC "-//W3C//DTD SVG 20010904//EN"
 "http://www.w3.org/TR/2001/REC-SVG-20010904/DTD/svg10.dtd">
<svg version="1.0" xmlns="http://www.w3.org/2000/svg"
 width="220.000000pt" height="220.000000pt" viewBox="0 0 220.000000 220.000000"
 preserveAspectRatio="xMidYMid meet">
<metadata>
Created by potrace 1.14, written by Peter Selinger 2001-2017
</metadata>
<g transform="translate(0.000000,220.000000) scale(0.100000,-0.100000)"
fill="#000000" stroke="none">
<path d="M1570 2159 c-76 -15 -181 -73 -243 -135 -90 -90 -141 -199 -149 -319
l-3 -40 -50 -5 -51 -5 1 -226 c0 -176 3 -230 14 -242 12 -15 44 -17 278 -17
209 0 278 3 327 16 120 31 224 105 296 209 38 55 78 166 82 225 l2 40 51 0 51
0 -1 239 c0 186 -3 242 -14 255 -12 14 -44 16 -280 15 -146 -1 -286 -5 -311
-10z"/>
<path d="M1570 1019 c-78 -15 -181 -73 -247 -139 -88 -88 -137 -197 -144 -317
l-3 -43 -51 0 -51 0 0 -228 c1 -179 4 -233 15 -245 12 -15 44 -17 275 -17 291
0 347 8 448 62 134 71 239 222 257 370 l6 53 50 5 51 5 -1 236 c0 185 -3 240
-14 252 -12 15 -43 17 -280 16 -146 -1 -286 -5 -311 -10z"/>
<path d="M405 1006 c-184 -44 -342 -209 -376 -391 -22 -119 7 -265 72 -367 68
-106 199 -194 324 -217 32 -6 172 -11 310 -11 231 0 253 1 268 18 15 17 17 65
17 485 0 413 -2 467 -16 482 -14 13 -50 15 -282 14 -166 -1 -286 -6 -317 -13z"/>
</g>
</svg>
